# AST/ASF file generated using VICON BodyLanguage
# -----------------------------------------------
:version 1.10
:name VICON
:units
  mass 1.0
  length 0.45
  angle deg
:documentation
   .ast/.asf automatically generated from VICON data using
   VICON BodyBuilder and BodyLanguage model FoxedUp or BRILLIANT.MOD
:root
   order TX TY TZ RX RY RZ
   axis XYZ
   position 0 0 0  
   orientation 0 0 0 
:bonedata
  begin
     id 1 
     name lhipjoint
     direction 0.623415 -0.642378 0.445763 
     length 2.49859 
     axis 0 0 0  XYZ
  end
  begin
     id 2 
     name lfemur
     direction 0.34202 -0.939693 0  
     length 6.69689  
     axis 0 0 20  XYZ
    dof rx ry rz
    limits (-160.0 20.0)
           (-70.0 70.0)
           (-60.0 70.0)
  end
  begin
     id 3 
     name ltibia
     direction 0.34202 -0.939693 0   
     length 7.37574   
     axis 0 0 20   XYZ
    dof rx
    limits (-10.0 170.0)
  end
  begin
     id 4 
     name lfoot
     direction 0.084323 -0.231675 0.969132   
     length 2.09111   
     axis -90 7.62852e-016 20   XYZ
    dof rx rz
    limits (-45.0 90.0)
           (-70.0 20.0)
  end
  begin
     id 5 
     name ltoes
     direction 1.5357e-011 -4.21957e-011 1   
     length 1.04989   
     axis -90 7.62852e-016 20   XYZ
    dof rx
    limits (-90.0 20.0)
  end
  begin
     id 6 
     name rhipjoint
     direction -0.605402 -0.653903 0.45376   
     length 2.45455  
     axis 0 0 0  XYZ 
  end
  begin
     id 7 
     name rfemur
     direction -0.34202 -0.939693 0   
     length 6.64523   
     axis 0 0 -20   XYZ
    dof rx ry rz
    limits (-160.0 20.0)
           (-70.0 70.0)
           (-70.0 60.0)
  end
  begin
     id 8 
     name rtibia
     direction -0.34202 -0.939693 0   
     length 7.3339   
     axis 0 0 -20   XYZ
    dof rx
    limits (-10.0 170.0)
 end
 begin
     id 9 
     name rfoot
     direction -0.120854 -0.332043 0.93549   
     length 2.23135  
     axis -90 -7.62852e-016 -20   XYZ
    dof rx rz
    limits (-45.0 90.0)
           (-20.0 70.0)
  end
  begin
     id 10 
     name rtoes
     direction -1.53563e-011 -4.21914e-011 1   
     length 1.10614   
     axis -90 -7.62852e-016 -20   XYZ
    dof rx
    limits (-90.0 20.0)
  end
  begin
     id 11 
     name lowerback
     direction 0.0319682 0.998615 -0.0417941   
     length 2.02718   
     axis 0 0 0   XYZ
    dof rx ry rz
    limits (-20.0 45.0)
           (-30.0 30.0)
           (-30.0 30.0)
  end
  begin
     id 12 
     name upperback
     direction 7.63181e-005 0.995808 0.0914691   
     length 1.97539   
     axis 0 0 0   XYZ
    dof rx ry rz
    limits (-20.0 45.0)
           (-30.0 30.0)
           (-30.0 30.0)
  end
  begin
     id 13 
     name thorax
     direction -0.016423 0.993627 0.111514   
     length 2.00349   
     axis 0 0 0   XYZ
    dof rx ry rz
    limits (-20.0 45.0)
           (-30.0 30.0)
           (-30.0 30.0)
  end
  begin
     id 14 
     name lowerneck
     direction -0.174763 0.981668 -0.0760716   
     length 1.71436   
     axis 0 0 0   XYZ
    dof rx ry rz
    limits (-20.0 45.0)
           (-30.0 30.0)
           (-30.0 30.0)
  end
  begin
     id 15 
     name upperneck
     direction 0.345458 0.934587 -0.0848868   
     length 1.72805   
     axis 0 0 0   XYZ
    dof rx ry rz
    limits (-20.0 45.0)
           (-30.0 30.0)
           (-30.0 30.0)
  end
  begin
     id 16
     name head
     direction 0.13001 0.989848 -0.0574291  
     length 1.767  
     axis 0 0 0   XYZ
    dof rx ry rz
    limits (-20.0 45.0)
           (-30.0 30.0)
           (-30.0 30.0)
  end
  begin
     id 17 
     name lclavicle
     direction 0.952951 0.290122 0.0878234  
     length 3.54654  
     axis 0 0 0   XYZ
    dof ry rz
    limits (-20.0 10.0)
           (0.0 20.0)
  end
  begin
     id 18 
     name lhumerus
     direction 1 -4.48957e-011 -4.56525e-028   
     length 5.19807   
     axis 180 -30 -90   XYZ
    dof rx ry rz
    limits (-60.0 90.0)
           (-90.0 90.0)
           (-90.0 90.0)
  end
  begin
     id 19
     name lradius
     direction 1 -4.48979e-011 -2.0317e-027   
     length 3.0937   
     axis 180 -30 -90   XYZ
    dof rx
    limits (-10.0 170.0)
  end
  begin
     id 20
     name lwrist
     direction 1 -4.48953e-011 -3.05809e-027   
     length 1.54685   
     axis 8.48514e-016 90 90   XYZ
    dof ry
    limits (-180.0 0.0)
 end
  begin
     id 21 
     name lhand
     direction 1 -4.48952e-011 -6.11639e-027   
     length 0.672632   
     axis 3.9013e-015 90 90   XYZ
    dof rx rz
    limits (-90.0 90.0)
           (-45.0 45.0)
  end
  begin
     id 22 
     name lfingers
     direction 1 -4.48925e-011 -1.22426e-026   
     length 0.542293   
     axis 7.80276e-015 90 90   XYZ
    dof rx
    limits (0.0 90.0)
  end
  begin
     id 23
     name lthumb
     direction 0.707107 -6.3486e-011 0.707107   
     length 0.778628   
     axis -90 45 5.37419e-014   XYZ
    dof rx rz
    limits (-45.0 45.0)
           (-45.0 45.0)
  end
  begin
     id 24 
     name rclavicle
     direction -0.960732 0.273675 -0.0457849   
     length 3.52079  
     axis 0 0 0   XYZ 
    dof ry rz
    limits (-10.0 20.0)
           (-20.0 0.0)
  end
  begin
     id 25 
     name rhumerus
     direction -1 -4.48976e-011 -1.63613e-027  
     length 5.45222   
     axis 180 30 90   XYZ
    dof rx ry rz
    limits (-90.0 60.0)
           (-90.0 90.0)
           (-90.0 90.0)
  end
  begin
     id 26 
     name rradius
     direction -1 -4.48957e-011 -7.00033e-028   
     length 3.01284   
     axis 180 30 90   XYZ
    dof rx
    limits (-10.0 170.0)
  end
  begin
     id 27 
     name rwrist
     direction -1 -4.48983e-011 -3.05543e-027   
     length 1.50642   
     axis 8.48514e-016 -90 -90   XYZ
    dof ry
    limits (-180.0 0.0)
  end
  begin
     id 28
     name rhand
     direction -1 -4.48984e-011 -6.11072e-027   
     length 0.622296   
     axis 3.9013e-015 -90 -90   XYZ
    dof rx rz
    limits (-90.0 90.0)
           (-45.0 45.0)
  end
  begin
     id 29
     name rfingers
     direction -1 -4.48865e-011 -1.22637e-026   
     length 0.501711   
     axis 7.80276e-015 -90 -90   XYZ
    dof rx
    limits (0.0 90.0)
  end
  begin
     id 30
     name rthumb
     direction -0.707107 -6.34932e-011 0.707107   
     length 0.72036   
     axis -90 -45 -5.37419e-014   XYZ
    dof rx rz
    limits (-45.0 45.0)
           (-45.0 45.0)
  end
:hierarchy
  begin
    root lhipjoint rhipjoint lowerback
    lhipjoint lfemur
    lfemur ltibia
    ltibia lfoot
    lfoot ltoes
    rhipjoint rfemur
    rfemur rtibia
    rtibia rfoot
    rfoot rtoes
    lowerback upperback
    upperback thorax
    thorax lowerneck lclavicle rclavicle
    lowerneck upperneck
    upperneck head
    lclavicle lhumerus
    lhumerus lradius
    lradius lwrist
    lwrist lhand lthumb
    lhand lfingers
    rclavicle rhumerus
    rhumerus rradius
    rradius rwrist
    rwrist rhand rthumb
    rhand rfingers
  end

#!OML:ASF H:\Not Pregnant\Project 1\Capture day 1\Session 1\non-pregnant.ASF
:FULLY-SPECIFIED
:DEGREES
1
root -6.71481 15.5474 38.815 -171.829 -4.8322 -172.62
lowerback 2.90827 2.09558 9.09722
upperback -6.2778 3.13047 0.173367
thorax -7.81262 0.836432 -5.17419
lowerneck 14.6372 -7.75481 -29.3075
upperneck -12.5144 -18.2314 44.6392
head 2.12507 -12.7403 23.0803
rclavicle -3.67379e-014 -2.50469e-014
rhumerus -46.9103 5.09871 -93.4131
rradius 92.5157
rwrist -5.2305
rhand -19.3789 -3.66967
rfingers 7.12502
rthumb 6.93939 -33.5359
lclavicle -3.67379e-014 -2.50469e-014
lhumerus -50.5399 1.29841 85.9336
lradius 89.7589
lwrist 55.4339
lhand 18.1018 9.50238
lfingers 7.12502
lthumb 42.7628 33.8316
rfemur -18.3916 -6.1592 34.3582
rtibia 29.0024
rfoot -22.3808 11.8386
rtoes -8.23182
lfemur -51.0636 1.88381 -11.405
ltibia 80.0503
lfoot -3.99605 -6.80588
ltoes -26.5266
2
root -6.71785 15.5485 38.8131 -172.234 -4.51978 -172.342
lowerback 3.51455 2.18736 9.33988
upperback -6.14891 3.35763 0.287089
thorax -7.99053 0.938533 -5.23393
lowerneck 14.7417 -7.78323 -29.2766
upperneck -12.7218 -18.248 44.6837
head 2.06338 -12.7655 23.1161
rclavicle 3.1234e-014 2.62396e-014
rhumerus -46.463 5.23412 -93.3158
rradius 93.9134
rwrist -5.02596
rhand -19.6384 -3.81012
rfingers 7.12502
rthumb 6.6889 -33.6845
lclavicle 3.1234e-014 2.62396e-014
lhumerus -50.6197 0.68184 87.1151
lradius 91.4136
lwrist 51.4759
lhand 13.2228 5.05733
lfingers 7.12502
lthumb 38.1763 30.8084
rfemur -17.6214 -6.39164 34.5768
rtibia 28.3942
rfoot -22.2219 12.4015
rtoes -7.86019
lfemur -52.187 2.36725 -11.3019
ltibia 82.0809
lfoot -4.02951 -6.61673
ltoes -26.2952
3
root -6.71748 15.5493 38.8084 -172.634 -4.36671 -172.055
lowerback 4.02806 2.24877 9.56865
upperback -6.0504 3.53157 0.396723
thorax -8.15531 1.01216 -5.28387
lowerneck 15.013 -7.67479 -29.2521
upperneck -12.889 -18.133 44.7633
head 1.92329 -12.7491 23.2729
rclavicle -3.05631e-015 2.38542e-015
rhumerus -46.1048 5.26862 -93.2118
rradius 95.2463
rwrist -4.86987
rhand -19.7981 -3.9054
rfingers 7.12502
rthumb 6.53471 -33.7846
lclavicle -3.05631e-015 2.38542e-015
lhumerus -50.7244 -0.0420084 88.276
lradius 92.9342
lwrist 47.5333
lhand 7.662 1.57735
lfingers 7.12502
lthumb 32.9056 28.5974
rfemur -16.859 -6.58862 34.8268
rtibia 27.8312
rfoot -22.0541 12.7877
rtoes -7.40777
lfemur -53.3374 2.73135 -11.1637
ltibia 84.044
lfoot -4.00151 -6.53085
ltoes -25.7596
4
root -6.72079 15.5579 38.795 -172.74 -3.98782 -171.955
lowerback 4.27682 2.3912 9.60468
upperback -5.96971 3.76245 0.451493
thorax -8.17794 1.12952 -5.27794
lowerneck 14.92 -7.78926 -29.2114
upperneck -12.9217 -18.2496 44.7497
head 1.98075 -12.793 23.1805
rclavicle -2.34069e-014 -1.94809e-014
rhumerus -45.475 5.39355 -93.1089
rradius 96.164
rwrist -4.62765
rhand -19.9348 -3.91501
rfingers 7.12502
rthumb 6.40272 -33.7982
lclavicle -2.34069e-014 -1.94809e-014
lhumerus -50.6255 -0.964712 89.6041
lradius 93.5892
lwrist 43.0353
lhand 0.8892 -3.53913
lfingers 7.12502
lthumb 26.4418 24.6365
rfemur -16.3798 -6.72122 34.8804
rtibia 27.2823
rfoot -21.9037 13.3206
rtoes -7.12369
lfemur -54.6557 3.30002 -11.3229
ltibia 85.9209
lfoot -4.35607 -6.50652
ltoes -26.0991
5
root -6.72364 15.5617 38.7834 -172.915 -3.68375 -171.795
lowerback 4.56811 2.50709 9.70977
upperback -5.88669 3.96917 0.52418
thorax -8.22523 1.22947 -5.29232
lowerneck 14.9471 -7.8064 -29.1946
upperneck -13.0009 -18.2603 44.778
head 1.96375 -12.8044 23.1978
rclavicle -2.05866e-014 -3.97569e-016
rhumerus -44.9382 5.49818 -93.0134
rradius 97.19
rwrist -4.42515
rhand -20.1033 -3.96786
rfingers 7.12502
rthumb 6.24005 -33.856
lclavicle -2.05866e-014 -3.97569e-016
lhumerus -50.525 -1.49836 90.4577
lradius 94.599
lwrist 39.9728
lhand -4.1272 -6.18355
lfingers 7.12502
lthumb 21.6318 22.6281
rfemur -15.8534 -6.87384 34.9952
rtibia 26.768
rfoot -21.7586 13.8016
rtoes -6.75688
lfemur -55.9474 3.80415 -11.4023
ltibia 87.7692
lfoot -4.51811 -6.49248
ltoes -26.0997
6
root -6.7271 15.5665 38.7686 -173.02 -3.38796 -171.668
lowerback 4.76263 2.625 9.78893
upperback -5.82134 4.16255 0.584802
thorax -8.23711 1.32427 -5.29938
lowerneck 14.9594 -7.81372 -29.1936
upperneck -13.045 -18.263 44.8014
head 1.95627 -12.8089 23.2169
rclavicle -5.08143e-015 -2.3059e-014
rhumerus -44.3912 5.60713 -92.9316
rradius 98.0961
rwrist -4.21538
rhand -20.2716 -4.01858
rfingers 7.12502
rthumb 6.07756 -33.9114
lclavicle -5.08143e-015 -2.3059e-014
lhumerus -50.3443 -1.85761 91.0305
lradius 95.5488
lwrist 37.8651
lhand -7.85504 -7.95759
lfingers 7.12502
lthumb 18.0483 21.225
rfemur -15.4063 -7.01633 35.0807
rtibia 26.2912
rfoot -21.63 14.2633
rtoes -6.39579
lfemur -57.287 4.29778 -11.5424
ltibia 89.5507
lfoot -4.69815 -6.52427
ltoes -26.1574
7
root -6.73127 15.5721 38.7507 -173.069 -3.10003 -171.563
lowerback 4.87421 2.74291 9.85499
upperback -5.77462 4.34265 0.635526
thorax -8.22245 1.41286 -5.30414
lowerneck 14.9671 -7.81337 -29.2093
upperneck -13.0575 -18.2625 44.8173
head 1.95707 -12.8093 23.2359
rclavicle 1.65985e-014 -2.26615e-014
rhumerus -43.8451 5.72218 -92.8685
rradius 98.8851
rwrist -3.99398
rhand -20.434 -4.07992
rfingers 7.12502
rthumb 5.92083 -33.9772
lclavicle 1.65985e-014 -2.26615e-014
lhumerus -50.0998 -2.05385 91.3425
lradius 96.474
lwrist 36.6866
lhand -10.2645 -9.04773
lfingers 7.12502
lthumb 15.7289 20.3331
rfemur -15.018 -7.1507 35.1454
rtibia 25.8384
rfoot -21.5148 14.7092
rtoes -6.03579
lfemur -58.6586 4.77701 -11.7327
ltibia 91.2674
lfoot -4.89267 -6.5935
ltoes -26.2535
8
root -6.73608 15.5783 38.7299 -173.081 -2.82468 -171.469
lowerback 4.92791 2.85674 9.9213
upperback -5.75289 4.50851 0.678953
thorax -8.20273 1.49249 -5.31244
lowerneck 14.9899 -7.80018 -29.2373
upperneck -13.0179 -18.2579 44.815
head 1.96387 -12.8045 23.2494
rclavicle 1.55052e-014 4.77083e-015
rhumerus -43.3322 5.84174 -92.8324
rradius 99.5747
rwrist -3.77006
rhand -20.5907 -4.17158
rfingers 7.12502
rthumb 5.76952 -34.073
lclavicle 1.55052e-014 4.77083e-015
lhumerus -49.8295 -2.1242 91.4419
lradius 97.3962
lwrist 36.2728
lhand -11.5772 -9.58049
lfingers 7.12502
lthumb 14.4644 19.8954
rfemur -14.6642 -7.2759 35.2008
rtibia 25.3999
rfoot -21.4112 15.133
rtoes -5.67534
lfemur -60.0438 5.23218 -11.9563
ltibia 92.91
lfoot -5.07565 -6.69274
ltoes -26.3357
9
root -6.74121 15.5846 38.7061 -173.077 -2.58242 -171.386
lowerback 4.948 2.95628 9.98601
upperback -5.75172 4.64988 0.716946
thorax -8.18934 1.55818 -5.32163
lowerneck 15.0183 -7.78559 -29.2744
upperneck -12.9192 -18.2632 44.7883
head 1.98521 -12.7994 23.2435
rclavicle -6.83322e-015 2.62396e-014
rhumerus -42.8501 5.97084 -92.8247
rradius 100.169
rwrist -3.54831
rhand -20.7222 -4.30361
rfingers 7.12502
rthumb 5.6426 -34.2085
lclavicle -6.83322e-015 2.62396e-014
lhumerus -49.5619 -2.1384 91.4206
lradius 98.2974
lwrist 36.2914
lhand -12.2922 -9.75007
lfingers 7.12502
lthumb 13.7754 19.7739
rfemur -14.3208 -7.39973 35.2461
rtibia 24.9731
rfoot -21.3246 15.5161
rtoes -5.33683
lfemur -61.4171 5.6386 -12.2078
ltibia 94.4721
lfoot -5.25365 -6.81104
ltoes -26.4403
10
root -6.7465 15.5907 38.68 -173.066 -2.37026 -171.314
lowerback 4.95234 3.04018 10.044
upperback -5.77034 4.76719 0.750283
thorax -8.19229 1.61006 -5.32928
lowerneck 15.0449 -7.77447 -29.3134
upperneck -12.7561 -18.282 44.7317
head 2.02359 -12.7942 23.2088
rclavicle 4.91868e-014 1.09332e-014
rhumerus -42.4054 6.11117 -92.8486
rradius 100.687
rwrist -3.33737
rhand -20.8241 -4.49285
rfingers 7.12502
rthumb 5.54418 -34.4003
lclavicle 4.91868e-014 1.09332e-014
lhumerus -49.3306 -2.18377 91.3881
lradius 99.1213
lwrist 36.2664
lhand -13.038 -9.87562
lfingers 7.12502
lthumb 13.0565 19.6957
rfemur -13.985 -7.51772 35.281
rtibia 24.5623
rfoot -21.2584 15.8492
rtoes -5.04639
lfemur -62.7714 5.99245 -12.4842
ltibia 95.9499
lfoot -5.41938 -6.93595
ltoes -26.598
